<?xml version="1.0" encoding="UTF-8"?><svg id="Layer_2" xmlns="http://www.w3.org/2000/svg" viewBox="0 0 500 500"><defs><style>.cls-1{fill:#231f20;}.cls-2{fill:none;stroke:#231f20;stroke-miterlimit:10;stroke-width:47px;}</style></defs><path class="cls-2" d="M24,343.52V66.86c0-23.12,18.72-41.86,41.82-41.86h366.89c23.1,0,41.82,18.74,41.82,41.86v241.8"/><path class="cls-2" d="M24,343.52v90.61c0,23.12,18.72,41.86,41.82,41.86h366.89c2.51,0,4.96-.23,7.34-.66"/><path class="cls-2" d="M474.53,308.67v125.47c0,20.61-14.88,37.73-34.48,41.21"/><path class="cls-2" d="M24,349.52l120.61-112.73c16.33-16.35,42.81-16.35,59.14,0l239.3,232.55"/><path class="cls-2" d="M293.62,330.13l63.61-62.68c16.33-16.35,42.81-16.35,59.14,0l58.63,57.05"/><path class="cls-1" d="M312.2,150c6.9,0,12.49,5.6,12.49,12.5s-5.59,12.5-12.49,12.5-12.49-5.6-12.49-12.5,5.59-12.5,12.49-12.5M312.2,126c-20.12,0-36.49,16.37-36.49,36.5s16.37,36.5,36.49,36.5,36.49-16.37,36.49-36.5-16.37-36.5-36.49-36.5h0Z"/></svg>